<svg width="48" height="48" viewBox="0 0 48 48" fill="none" xmlns="http://www.w3.org/2000/svg">
<path d="M38.96 28.8787C38.96 28.8787 37.15 36.2887 33.56 41.8487C21.15 41.1487 12.35 34.5487 11.93 32.8287C21.28 31.3287 26.69 24.1987 26.69 24.1987" stroke="#F45A0C" stroke-miterlimit="10" stroke-linecap="round" stroke-linejoin="round"/>
<path d="M30.96 34.4088C29.34 39.0488 26.28 40.7288 26.28 40.7288" stroke="#F45A0C" stroke-miterlimit="10" stroke-linecap="round" stroke-linejoin="round"/>
<path d="M22.28 34.4788C20.12 36.7188 17.07 37.0788 17.07 37.0788" stroke="#F45A0C" stroke-miterlimit="10" stroke-linecap="round" stroke-linejoin="round"/>
<path d="M37.59 19.6387L41.21 7.59874C41.4 6.96874 41.07 6.30874 40.45 6.07874C39.84 5.84874 39.15 6.13874 38.89 6.73874L33.8 18.2387C30.89 17.2987 27.73 18.7987 26.65 21.6987L40.75 26.9287C41.83 24.0287 40.41 20.8287 37.59 19.6387Z" stroke="#F45A0C" stroke-miterlimit="10" stroke-linecap="round" stroke-linejoin="round"/>
<path d="M11.97 26.8787C14.7149 26.8787 16.94 24.6536 16.94 21.9087C16.94 19.1639 14.7149 16.9387 11.97 16.9387C9.22514 16.9387 7 19.1639 7 21.9087C7 24.6536 9.22514 26.8787 11.97 26.8787Z" stroke="#F45A0C" stroke-miterlimit="10" stroke-linecap="round" stroke-linejoin="round"/>
<path d="M19.6 16.4387C20.8371 16.4387 21.84 15.4359 21.84 14.1987C21.84 12.9616 20.8371 11.9587 19.6 11.9587C18.3629 11.9587 17.36 12.9616 17.36 14.1987C17.36 15.4359 18.3629 16.4387 19.6 16.4387Z" stroke="#F45A0C" stroke-miterlimit="10" stroke-linecap="round" stroke-linejoin="round"/>
<path d="M14.13 9.38876C15.0357 9.38876 15.77 8.65451 15.77 7.74876C15.77 6.84302 15.0357 6.10876 14.13 6.10876C13.2242 6.10876 12.49 6.84302 12.49 7.74876C12.49 8.65451 13.2242 9.38876 14.13 9.38876Z" stroke="#F45A0C" stroke-miterlimit="10" stroke-linecap="round" stroke-linejoin="round"/>
</svg>
