<svg width="48" height="48" viewBox="0 0 48 48" fill="none" xmlns="http://www.w3.org/2000/svg">
<path d="M29.43 24.44V28.6C27.57 29.83 26.33 31.94 26.33 34.33C26.33 38.12 29.4 41.19 33.19 41.19C36.98 41.19 40.05 38.12 40.05 34.33C40.05 31.93 38.82 29.82 36.95 28.6V9.77C36.95 7.69 35.26 6 33.18 6C31.1 6 29.41 7.69 29.41 9.77V16.58V24.44H29.43Z" stroke="#F45A0C" stroke-miterlimit="10" stroke-linecap="round" stroke-linejoin="round"/>
<path d="M33.2 37.85C35.144 37.85 36.72 36.274 36.72 34.33C36.72 32.386 35.144 30.81 33.2 30.81C31.256 30.81 29.68 32.386 29.68 34.33C29.68 36.274 31.256 37.85 33.2 37.85Z" stroke="#F45A0C" stroke-miterlimit="10" stroke-linecap="round" stroke-linejoin="round"/>
<path d="M33.2 30.81V23.6" stroke="#F45A0C" stroke-miterlimit="10" stroke-linecap="round" stroke-linejoin="round"/>
<path d="M42.4 25.11H40.26" stroke="#F45A0C" stroke-miterlimit="10" stroke-linecap="round" stroke-linejoin="round"/>
<path d="M44.26 21.46H40.26" stroke="#F45A0C" stroke-miterlimit="10" stroke-linecap="round" stroke-linejoin="round"/>
<path d="M42.4 17.8H40.26" stroke="#F45A0C" stroke-miterlimit="10" stroke-linecap="round" stroke-linejoin="round"/>
<path d="M44.11 14.15H40.12" stroke="#F45A0C" stroke-miterlimit="10" stroke-linecap="round" stroke-linejoin="round"/>
<path d="M41.44 11.49C42.2021 11.49 42.82 10.8721 42.82 10.11C42.82 9.34784 42.2021 8.73 41.44 8.73C40.6778 8.73 40.06 9.34784 40.06 10.11C40.06 10.8721 40.6778 11.49 41.44 11.49Z" stroke="#F45A0C" stroke-miterlimit="10" stroke-linecap="round" stroke-linejoin="round"/>
<path d="M22.43 41.2V6" stroke="#F45A0C" stroke-miterlimit="10" stroke-linecap="round" stroke-linejoin="round"/>
<path d="M22.43 23.73L8.88 37.27" stroke="#F45A0C" stroke-miterlimit="10" stroke-linecap="round" stroke-linejoin="round"/>
<path d="M14.88 31.28H7.52002" stroke="#F45A0C" stroke-miterlimit="10" stroke-linecap="round" stroke-linejoin="round"/>
<path d="M14.88 31.28V38.64" stroke="#F45A0C" stroke-miterlimit="10" stroke-linecap="round" stroke-linejoin="round"/>
<path d="M17.26 23.73L13.44 19.91" stroke="#F45A0C" stroke-miterlimit="10" stroke-linecap="round" stroke-linejoin="round"/>
<path d="M17.26 23.73L13.44 27.56" stroke="#F45A0C" stroke-miterlimit="10" stroke-linecap="round" stroke-linejoin="round"/>
<path d="M22.43 30.15L18.6 33.98" stroke="#F45A0C" stroke-miterlimit="10" stroke-linecap="round" stroke-linejoin="round"/>
<path d="M22.43 17.05L18.6 13.22" stroke="#F45A0C" stroke-miterlimit="10" stroke-linecap="round" stroke-linejoin="round"/>
<path d="M9.92 23.73L7.56 21.37" stroke="#F45A0C" stroke-miterlimit="10" stroke-linecap="round" stroke-linejoin="round"/>
<path d="M9.92 23.73L7.56 26.1" stroke="#F45A0C" stroke-miterlimit="10" stroke-linecap="round" stroke-linejoin="round"/>
<path d="M22.43 23.73L8.88 10.19" stroke="#F45A0C" stroke-miterlimit="10" stroke-linecap="round" stroke-linejoin="round"/>
<path d="M14.5 15.81V10.37" stroke="#F45A0C" stroke-miterlimit="10" stroke-linecap="round" stroke-linejoin="round"/>
<path d="M14.5 15.81H9.06" stroke="#F45A0C" stroke-miterlimit="10" stroke-linecap="round" stroke-linejoin="round"/>
<path d="M22.43 23.73H4" stroke="#F45A0C" stroke-miterlimit="10" stroke-linecap="round" stroke-linejoin="round"/>
</svg>
