<svg width="48" height="48" viewBox="0 0 48 48" fill="none" xmlns="http://www.w3.org/2000/svg">
<path d="M25.08 11.6H22.1V16.52C23.32 17.06 24.38 18.02 25.05 19.41C27.68 24.87 30.28 31.27 30.28 35.25C30.28 43.29 25.52 43.9 19.64 43.9C13.76 43.9 9 43.28 9 35.24C9 31.27 11.6 24.86 14.23 19.4C14.9 18.01 15.96 17.05 17.18 16.51V14.62C17.18 14.01 16.95 13.42 16.54 12.98L15.84 12.22C15.5 11.86 15.05 11.64 14.57 11.5C13.47 11.18 12.69 10.11 12.81 8.87999C12.94 7.59999 14.11 6.67999 15.4 6.67999H25.07L25.08 11.6Z" stroke="#F45A0C" stroke-miterlimit="10" stroke-linecap="round" stroke-linejoin="round"/>
<path d="M26.99 11.6H27.13C28.49 11.6 29.59 10.5 29.59 9.13999C29.59 7.77999 28.49 6.67999 27.13 6.67999H27L26.99 11.6Z" stroke="#F45A0C" stroke-miterlimit="10" stroke-linecap="round" stroke-linejoin="round"/>
<path d="M23.45 11.6C23.45 11.6 23.57 15.59 28.69 17.47" stroke="#F45A0C" stroke-miterlimit="10" stroke-linecap="round" stroke-linejoin="round"/>
<path d="M19.64 27.82V35.74" stroke="#F45A0C" stroke-miterlimit="10" stroke-linecap="round" stroke-linejoin="round"/>
<path d="M23.6 31.78H15.68" stroke="#F45A0C" stroke-miterlimit="10" stroke-linecap="round" stroke-linejoin="round"/>
<path d="M39.29 9.14H39.85" stroke="#F45A0C" stroke-miterlimit="10" stroke-linecap="round" stroke-linejoin="round"/>
<path d="M32.39 9.14H37.98" stroke="#F45A0C" stroke-miterlimit="10" stroke-linecap="round" stroke-linejoin="round"/>
<path d="M37.2 13.08L37.59 13.26" stroke="#F45A0C" stroke-miterlimit="10" stroke-linecap="round" stroke-linejoin="round"/>
<path d="M32.39 10.95L35.6 12.37" stroke="#F45A0C" stroke-miterlimit="10" stroke-linecap="round" stroke-linejoin="round"/>
<path d="M36.47 5.2L36.88 5" stroke="#F45A0C" stroke-miterlimit="10" stroke-linecap="round" stroke-linejoin="round"/>
<path d="M32.49 7.22L35.09 5.91" stroke="#F45A0C" stroke-miterlimit="10" stroke-linecap="round" stroke-linejoin="round"/>
</svg>
