<svg width="48" height="48" viewBox="0 0 48 48" fill="none" xmlns="http://www.w3.org/2000/svg">
<path d="M41 22.05H40.68C38.68 22.05 36.97 20.78 36.21 18.93L36.17 18.84C35.4 16.99 35.7 14.87 37.12 13.45L37.35 13.22C38.09 12.48 38.09 11.28 37.35 10.54C36.61 9.8 35.41 9.8 34.67 10.54L34.44 10.77C33.02 12.19 30.9 12.49 29.05 11.72L28.96 11.68C27.11 10.93 25.85 9.2 25.85 7.21V7.05C25.85 5.84 25 5 23.96 5C22.92 5 22.07 5.85 22.07 6.89V6.96C22.07 9.04 20.82 10.91 18.9 11.7L18.89 11.71C16.97 12.5 14.76 12.06 13.29 10.6L13.23 10.55C12.49 9.81 11.29 9.81 10.55 10.55C9.81 11.29 9.81 12.49 10.55 13.23L10.62 13.3C12.08 14.76 12.51 16.95 11.72 18.85L11.67 18.97C10.9 20.84 9.07 22.05 7.05 22.05C5.84 22.05 5 22.9 5 23.94C5 24.98 5.85 25.83 6.89 25.83H7.02C9.06 25.83 10.9 27.06 11.68 28.95L11.72 29.04C12.51 30.94 12.07 33.13 10.62 34.59L10.55 34.66C9.81 35.4 9.81 36.6 10.55 37.34C11.29 38.08 12.49 38.08 13.23 37.34L13.3 37.27C14.76 35.81 16.95 35.38 18.85 36.17L19.12 36.28C20.9 37.01 22.06 38.75 22.06 40.67V40.83C22.06 42.04 22.91 42.89 23.95 42.89C24.99 42.89 25.84 42.04 25.84 41V40.68C25.84 38.76 27 37.02 28.78 36.29L29.26 36.09C31.04 35.35 33.08 35.76 34.44 37.12L34.67 37.35C35.41 38.09 36.61 38.09 37.35 37.35C38.09 36.61 38.09 35.41 37.35 34.67L37.12 34.44C35.7 33.02 35.4 30.9 36.17 29.05L36.21 28.96C36.97 27.11 38.69 25.84 40.69 25.84H40.84C42.05 25.84 42.9 24.99 42.9 23.95C42.9 22.91 42.05 22.05 41 22.05Z" stroke="#F45A0C" stroke-miterlimit="10" stroke-linecap="round" stroke-linejoin="round"/>
<path d="M25.63 23.17C27.8833 23.17 29.71 21.3433 29.71 19.09C29.71 16.8367 27.8833 15.01 25.63 15.01C23.3767 15.01 21.55 16.8367 21.55 19.09C21.55 21.3433 23.3767 23.17 25.63 23.17Z" stroke="#F45A0C" stroke-miterlimit="10" stroke-linecap="round" stroke-linejoin="round"/>
<path d="M17.08 25.59C17.9857 25.59 18.72 24.8557 18.72 23.95C18.72 23.0443 17.9857 22.31 17.08 22.31C16.1743 22.31 15.44 23.0443 15.44 23.95C15.44 24.8557 16.1743 25.59 17.08 25.59Z" stroke="#F45A0C" stroke-miterlimit="10" stroke-linecap="round" stroke-linejoin="round"/>
<path d="M26.59 31.96C27.8768 31.96 28.92 30.9168 28.92 29.63C28.92 28.3432 27.8768 27.3 26.59 27.3C25.3032 27.3 24.26 28.3432 24.26 29.63C24.26 30.9168 25.3032 31.96 26.59 31.96Z" stroke="#F45A0C" stroke-miterlimit="10" stroke-linecap="round" stroke-linejoin="round"/>
</svg>
