<svg width="48" height="48" viewBox="0 0 48 48" fill="none" xmlns="http://www.w3.org/2000/svg">
<path d="M18.82 42.87H15.08C12.28 42.87 10 40.6 10 37.79V12.41C10 9.60999 12.27 7.32999 15.08 7.32999H32.46C35.26 7.32999 37.54 9.59999 37.54 12.41V18.62" stroke="#F45A0C" stroke-miterlimit="10" stroke-linecap="round" stroke-linejoin="round"/>
<path d="M28.29 20.89H25.48V30.75C25.48 34.45 28.48 37.44 32.17 37.44C35.86 37.44 38.86 34.44 38.86 30.75V20.89H36.05" stroke="#F45A0C" stroke-miterlimit="10" stroke-linecap="round" stroke-linejoin="round"/>
<path d="M19.07 31.92V37.43C19.07 41.05 22.01 43.99 25.63 43.99C29.25 43.99 32.19 41.05 32.19 37.43" stroke="#F45A0C" stroke-miterlimit="10" stroke-linecap="round" stroke-linejoin="round"/>
<path d="M19.07 31.92C20.1911 31.92 21.1 31.0112 21.1 29.89C21.1 28.7689 20.1911 27.86 19.07 27.86C17.9489 27.86 17.04 28.7689 17.04 29.89C17.04 31.0112 17.9489 31.92 19.07 31.92Z" stroke="#F45A0C" stroke-miterlimit="10" stroke-linecap="round" stroke-linejoin="round"/>
<path d="M19.35 5V9.67" stroke="#F45A0C" stroke-miterlimit="10" stroke-linecap="round" stroke-linejoin="round"/>
<path d="M28.19 5V9.67" stroke="#F45A0C" stroke-miterlimit="10" stroke-linecap="round" stroke-linejoin="round"/>
<path d="M14.31 15.59H33.23" stroke="#F45A0C" stroke-miterlimit="10" stroke-linecap="round" stroke-linejoin="round"/>
<path d="M14.31 19.03H20.55" stroke="#F45A0C" stroke-miterlimit="10" stroke-linecap="round" stroke-linejoin="round"/>
<path d="M28.29 19.98V21.8" stroke="#F45A0C" stroke-miterlimit="10" stroke-linecap="round" stroke-linejoin="round"/>
<path d="M36.07 19.98V21.8" stroke="#F45A0C" stroke-miterlimit="10" stroke-linecap="round" stroke-linejoin="round"/>
</svg>
