<svg width="48" height="48" viewBox="0 0 48 48" fill="none" xmlns="http://www.w3.org/2000/svg">
<path d="M31.28 17.16C30.22 15.69 28.91 14.62 27.27 13.81V11.07C28.26 10.7 28.97 9.75 28.97 8.62C28.97 7.17 27.8 6 26.35 6H18.15C16.7 6 15.53 7.17 15.53 8.62C15.53 9.74 16.24 10.69 17.23 11.07V13.8C13.54 15.65 11 19.45 11 23.86V38.26C11 40.64 12.93 42.57 15.31 42.57H29.19C31.57 42.57 33.5 40.64 33.5 38.26V28.67" stroke="#F45A0C" stroke-miterlimit="10" stroke-linecap="round" stroke-linejoin="round"/>
<path d="M18.26 34.91C17.16 34.91 16.26 34.02 16.26 32.91V29.15C16.26 28.05 17.15 27.15 18.26 27.15C19.36 27.15 20.26 28.04 20.26 29.15V32.91C20.26 34.02 19.36 34.91 18.26 34.91Z" stroke="#F45A0C" stroke-miterlimit="10" stroke-linecap="round" stroke-linejoin="round"/>
<path d="M22.86 27.16V34.91" stroke="#F45A0C" stroke-miterlimit="10" stroke-linecap="round" stroke-linejoin="round"/>
<path d="M25.61 27.16V34.91H28.23" stroke="#F45A0C" stroke-miterlimit="10" stroke-linecap="round" stroke-linejoin="round"/>
<path d="M11 24.49H28.23" stroke="#F45A0C" stroke-miterlimit="10" stroke-linecap="round" stroke-linejoin="round"/>
<path d="M11.93 19.39H30" stroke="#F45A0C" stroke-miterlimit="10" stroke-linecap="round" stroke-linejoin="round"/>
<path d="M13.34 16.99H31.15" stroke="#F45A0C" stroke-miterlimit="10" stroke-linecap="round" stroke-linejoin="round"/>
<path d="M17.23 13.8H27.27" stroke="#F45A0C" stroke-miterlimit="10" stroke-linecap="round" stroke-linejoin="round"/>
<path d="M17.23 11.07H27.27" stroke="#F45A0C" stroke-miterlimit="10" stroke-linecap="round" stroke-linejoin="round"/>
<path d="M11 37.59H33.5" stroke="#F45A0C" stroke-miterlimit="10" stroke-linecap="round" stroke-linejoin="round"/>
<path d="M37.49 24.09C37.49 26.65 35.42 28.72 32.86 28.72C30.3 28.72 28.23 26.65 28.23 24.09C28.23 21.53 32.86 14.65 32.86 14.65C32.86 14.65 37.49 21.53 37.49 24.09Z" stroke="#F45A0C" stroke-miterlimit="10" stroke-linecap="round" stroke-linejoin="round"/>
</svg>
