<svg width="48" height="48" viewBox="0 0 48 48" fill="none" xmlns="http://www.w3.org/2000/svg">
<path d="M22.3 30.38V33.02C21.12 33.8 20.34 35.13 20.34 36.65C20.34 39.05 22.29 41 24.69 41C27.09 41 29.04 39.05 29.04 36.65C29.04 35.13 28.26 33.79 27.08 33.02V21.08C27.08 19.76 26.01 18.69 24.69 18.69C23.37 18.69 22.3 19.76 22.3 21.08V25.39V30.38V30.38Z" stroke="#F45A0C" stroke-miterlimit="10" stroke-linecap="round" stroke-linejoin="round"/>
<path d="M24.69 38.88C25.9216 38.88 26.92 37.8816 26.92 36.65C26.92 35.4184 25.9216 34.42 24.69 34.42C23.4584 34.42 22.46 35.4184 22.46 36.65C22.46 37.8816 23.4584 38.88 24.69 38.88Z" stroke="#F45A0C" stroke-miterlimit="10" stroke-linecap="round" stroke-linejoin="round"/>
<path d="M24.69 34.42V29.85" stroke="#F45A0C" stroke-miterlimit="10" stroke-linecap="round" stroke-linejoin="round"/>
<path d="M30.53 30.81H29.17" stroke="#F45A0C" stroke-miterlimit="10" stroke-linecap="round" stroke-linejoin="round"/>
<path d="M31.7 28.49H29.17" stroke="#F45A0C" stroke-miterlimit="10" stroke-linecap="round" stroke-linejoin="round"/>
<path d="M30.53 26.17H29.17" stroke="#F45A0C" stroke-miterlimit="10" stroke-linecap="round" stroke-linejoin="round"/>
<path d="M31.61 23.86H29.08" stroke="#F45A0C" stroke-miterlimit="10" stroke-linecap="round" stroke-linejoin="round"/>
<path d="M29.91 22.16C30.3905 22.16 30.78 21.7705 30.78 21.29C30.78 20.8095 30.3905 20.42 29.91 20.42C29.4295 20.42 29.04 20.8095 29.04 21.29C29.04 21.7705 29.4295 22.16 29.91 22.16Z" stroke="#F45A0C" stroke-miterlimit="10" stroke-linecap="round" stroke-linejoin="round"/>
<path d="M30.32 43.41H18.26C14.8 43.41 12 40.61 12 37.15V11.26C12 7.8 14.8 5 18.26 5H30.33C33.79 5 36.59 7.8 36.59 11.26V37.16C36.58 40.61 33.78 43.41 30.32 43.41Z" stroke="#F45A0C" stroke-miterlimit="10" stroke-linecap="round" stroke-linejoin="round"/>
<path d="M12 16.18H36.58" stroke="#F45A0C" stroke-miterlimit="10" stroke-linecap="round" stroke-linejoin="round"/>
<path d="M15.76 11.01V13.6" stroke="#F45A0C" stroke-miterlimit="10" stroke-linecap="round" stroke-linejoin="round"/>
<path d="M15.76 19.15V23.61" stroke="#F45A0C" stroke-miterlimit="10" stroke-linecap="round" stroke-linejoin="round"/>
</svg>
