<svg width="48" height="48" viewBox="0 0 48 48" fill="none" xmlns="http://www.w3.org/2000/svg">
<path d="M26.2325 6.95128C26.9425 7.93128 28.2825 8.19128 29.3025 7.56128C30.6425 6.74128 32.3925 7.46128 32.7525 8.99128C33.0325 10.1613 34.1725 10.9213 35.3625 10.7313C36.9125 10.4813 38.2525 11.8213 38.0025 13.3713C37.8125 14.5613 38.5725 15.7013 39.7425 15.9813C41.2725 16.3413 41.9925 18.0913 41.1725 19.4313C40.5425 20.4613 40.8125 21.8013 41.7825 22.5013C43.0525 23.4213 43.0525 25.3113 41.7825 26.2313C40.8025 26.9413 40.5425 28.2813 41.1725 29.3013C41.9925 30.6413 41.2725 32.3913 39.7425 32.7513C38.5725 33.0313 37.8125 34.1713 38.0025 35.3613C38.2525 36.9113 36.9125 38.2513 35.3625 38.0013C34.1725 37.8113 33.0325 38.5713 32.7525 39.7413C32.3925 41.2713 30.6425 41.9913 29.3025 41.1713C28.2725 40.5413 26.9325 40.8113 26.2325 41.7813C25.3125 43.0513 23.4225 43.0513 22.5025 41.7813C21.7925 40.8013 20.4525 40.5413 19.4325 41.1713C18.0925 41.9913 16.3425 41.2713 15.9825 39.7413C15.7025 38.5713 14.5625 37.8113 13.3725 38.0013C11.8225 38.2513 10.4825 36.9113 10.7325 35.3613C10.9225 34.1713 10.1625 33.0313 8.9925 32.7513C7.4625 32.3913 6.7425 30.6413 7.5625 29.3013C8.1925 28.2713 7.9225 26.9313 6.9525 26.2313C5.6825 25.3113 5.6825 23.4213 6.9525 22.5013C7.9325 21.7913 8.1925 20.4513 7.5625 19.4313C6.7425 18.0913 7.4625 16.3413 8.9925 15.9813C10.1625 15.7013 10.9225 14.5613 10.7325 13.3713C10.4825 11.8313 11.8225 10.4913 13.3725 10.7413C14.5625 10.9313 15.7025 10.1713 15.9825 9.00128C16.3425 7.47128 18.0925 6.75128 19.4325 7.57128C20.4625 8.20128 21.8025 7.93128 22.5025 6.96128C23.4225 5.68128 25.3125 5.68128 26.2325 6.95128Z" stroke="#F45A0C" stroke-miterlimit="10" stroke-linecap="round" stroke-linejoin="round"/>
<path d="M24.3725 39.1213C32.5132 39.1213 39.1125 32.522 39.1125 24.3813C39.1125 16.2406 32.5132 9.6413 24.3725 9.6413C16.2318 9.6413 9.63251 16.2406 9.63251 24.3813C9.63251 32.522 16.2318 39.1213 24.3725 39.1213Z" stroke="#F45A0C" stroke-miterlimit="10" stroke-linecap="round" stroke-linejoin="round"/>
<path d="M24.0325 18.0513L24.2325 16.0213C24.3125 15.2013 25.0725 14.6513 25.8425 14.8513C27.0025 15.1513 27.8125 16.2213 27.8125 17.4613V20.0613C27.8125 20.6413 27.8125 20.9313 27.9425 21.1413C28.0125 21.2613 28.1125 21.3613 28.2325 21.4413C28.4425 21.5713 28.7225 21.5713 29.2725 21.5713H29.6125C31.0725 21.5713 31.8025 21.5713 32.2525 21.9013C32.5925 22.1513 32.8225 22.5213 32.9225 22.9313C33.0525 23.4913 32.7725 24.1813 32.2025 25.5713L31.9225 26.2613C31.7625 26.6613 31.6925 27.1013 31.7325 27.5313C31.9325 29.9913 29.9825 32.0613 27.5925 31.9313L18.6625 31.4213C17.6825 31.3613 17.2025 31.3413 16.7625 30.9513C16.3225 30.5613 16.2425 30.1613 16.0725 29.3613C15.7225 27.6513 15.7325 25.8913 16.1225 24.1913C16.3625 23.1213 17.3825 22.5513 18.4425 22.6813C21.2125 23.0413 23.7525 20.9513 24.0325 18.0513Z" stroke="#F45A0C" stroke-linecap="round" stroke-linejoin="round"/>
<path d="M20.0825 22.9513L19.9625 23.3413C19.2025 25.8713 19.2425 28.5813 20.0825 31.0813" stroke="#F45A0C" stroke-linecap="round" stroke-linejoin="round"/>
</svg>
