<svg width="48" height="48" viewBox="0 0 48 48" fill="none" xmlns="http://www.w3.org/2000/svg">
<path d="M35.1796 34.6996C36.5696 36.7596 39.3096 40.8296 39.3096 40.8296C40.2896 42.2796 39.8996 44.2496 38.4496 45.2296C36.9996 46.2096 35.0296 45.8196 34.0496 44.3696C34.0496 44.3696 31.3796 40.4096 29.9196 38.2396C28.0396 35.4496 25.5396 37.1296 23.6296 34.2796C20.1396 29.0996 9.04961 12.6296 9.04961 12.6296C7.14961 9.79961 7.89961 5.95961 10.7296 4.04961C13.5596 2.14961 17.3996 2.89961 19.3096 5.72961C19.3096 5.72961 30.4096 22.2196 33.8796 27.3796C35.6696 30.0296 33.5496 32.2796 35.1796 34.6996Z" stroke="#F45A0C" stroke-miterlimit="10" stroke-linecap="round" stroke-linejoin="round"/>
<path d="M30.4796 39.0796L35.7496 35.5396" stroke="#F45A0C" stroke-miterlimit="10" stroke-linecap="round" stroke-linejoin="round"/>
<path d="M37.0596 43.1696L34.5296 39.4096" stroke="#F45A0C" stroke-miterlimit="10" stroke-linecap="round" stroke-linejoin="round"/>
<path d="M31.5696 35.0096L14.3996 9.50961" stroke="#F45A0C" stroke-miterlimit="10" stroke-linecap="round" stroke-linejoin="round"/>
<path d="M17.0196 9.92961L18.6696 8.81961" stroke="#F45A0C" stroke-miterlimit="10" stroke-linecap="round" stroke-linejoin="round"/>
<path d="M19.2196 13.1896L20.0396 12.6396" stroke="#F45A0C" stroke-miterlimit="10" stroke-linecap="round" stroke-linejoin="round"/>
<path d="M21.4096 16.4496L23.0596 15.3396" stroke="#F45A0C" stroke-miterlimit="10" stroke-linecap="round" stroke-linejoin="round"/>
<path d="M23.6096 19.7096L24.4296 19.1596" stroke="#F45A0C" stroke-miterlimit="10" stroke-linecap="round" stroke-linejoin="round"/>
<path d="M25.7996 22.9796L27.4496 21.8696" stroke="#F45A0C" stroke-miterlimit="10" stroke-linecap="round" stroke-linejoin="round"/>
<path d="M27.9996 26.2396L28.8196 25.6796" stroke="#F45A0C" stroke-miterlimit="10" stroke-linecap="round" stroke-linejoin="round"/>
<path d="M30.1896 29.4996L31.8396 28.3896" stroke="#F45A0C" stroke-miterlimit="10" stroke-linecap="round" stroke-linejoin="round"/>
</svg>
