<svg width="48" height="48" viewBox="0 0 48 48" fill="none" xmlns="http://www.w3.org/2000/svg">
<path d="M21.9585 25.0094V30.0398C19.7028 31.5173 18.214 34.0663 18.214 36.965C18.214 41.5442 21.9247 45.2549 26.5039 45.2549C31.0831 45.2549 34.7938 41.5442 34.7938 36.965C34.7938 34.0663 33.305 31.5173 31.0493 30.0398V7.29046C31.0493 4.77529 29.0078 2.7451 26.5039 2.7451C23.9887 2.7451 21.9585 4.78656 21.9585 7.29046V15.5127" stroke="#F45A0C" stroke-miterlimit="10" stroke-linecap="round" stroke-linejoin="round"/>
<path d="M26.5039 41.2171C28.8523 41.2171 30.756 39.3134 30.756 36.965C30.756 34.6166 28.8523 32.7129 26.5039 32.7129C24.1556 32.7129 22.2518 34.6166 22.2518 36.965C22.2518 39.3134 24.1556 41.2171 26.5039 41.2171Z" stroke="#F45A0C" stroke-miterlimit="10" stroke-linecap="round" stroke-linejoin="round"/>
<path d="M26.5039 32.7129V24.0056" stroke="#F45A0C" stroke-miterlimit="10" stroke-linecap="round" stroke-linejoin="round"/>
<path d="M37.0157 25.8328H33.4403" stroke="#F45A0C" stroke-miterlimit="10" stroke-linecap="round" stroke-linejoin="round"/>
<path d="M40.1174 21.4115H33.4403" stroke="#F45A0C" stroke-miterlimit="10" stroke-linecap="round" stroke-linejoin="round"/>
<path d="M37.0157 17.0015H33.4403" stroke="#F45A0C" stroke-miterlimit="10" stroke-linecap="round" stroke-linejoin="round"/>
<path d="M39.8806 12.5802H33.2036" stroke="#F45A0C" stroke-miterlimit="10" stroke-linecap="round" stroke-linejoin="round"/>
<path d="M10.77 23.6898C10.2963 22.765 10.0031 21.6709 10.0031 20.5656C10.0031 16.8098 16.8042 6.68143 16.8042 6.68143C16.8042 6.68143 23.6053 16.8098 23.6053 20.5656C23.6053 24.3215 20.56 27.3667 16.8042 27.3667C16.6124 27.3667 15.9244 27.3216 15.744 27.3103" stroke="#F45A0C" stroke-miterlimit="10" stroke-linecap="round" stroke-linejoin="round"/>
<path d="M15.744 27.096C15.744 28.833 14.3342 30.2428 12.5972 30.2428C10.8603 30.2428 9.45044 28.833 9.45044 27.096C9.45044 25.3591 12.5972 20.6671 12.5972 20.6671C12.5972 20.6671 15.744 25.3591 15.744 27.096Z" stroke="#F45A0C" stroke-miterlimit="10" stroke-linecap="round" stroke-linejoin="round"/>
<path d="M10.003 19.3249C8.73982 18.6933 7.88263 17.385 7.88263 15.8736C7.88263 13.7419 11.7513 7.98975 11.7513 7.98975C11.7513 7.98975 12.7889 9.53494 13.7814 11.317" stroke="#F45A0C" stroke-miterlimit="10" stroke-linecap="round" stroke-linejoin="round"/>
<path d="M34.7938 9.36575C35.7095 9.36575 36.4518 8.62345 36.4518 7.70777C36.4518 6.79209 35.7095 6.04979 34.7938 6.04979C33.8782 6.04979 33.1359 6.79209 33.1359 7.70777C33.1359 8.62345 33.8782 9.36575 34.7938 9.36575Z" stroke="#F45A0C" stroke-miterlimit="10" stroke-linecap="round" stroke-linejoin="round"/>
<path d="M14.0183 17.9264C14.5166 17.9264 14.9206 17.5224 14.9206 17.0241C14.9206 16.5257 14.5166 16.1218 14.0183 16.1218C13.5199 16.1218 13.116 16.5257 13.116 17.0241C13.116 17.5224 13.5199 17.9264 14.0183 17.9264Z" stroke="#F45A0C" stroke-miterlimit="10" stroke-linecap="round" stroke-linejoin="round"/>
<path d="M19.2629 23.0244C19.7612 23.0244 20.1652 22.6204 20.1652 22.1221C20.1652 21.6238 19.7612 21.2198 19.2629 21.2198C18.7646 21.2198 18.3606 21.6238 18.3606 22.1221C18.3606 22.6204 18.7646 23.0244 19.2629 23.0244Z" stroke="#F45A0C" stroke-miterlimit="10" stroke-linecap="round" stroke-linejoin="round"/>
<path d="M19.4209 15.2871L14.4018 22.6183" stroke="#F45A0C" stroke-miterlimit="10" stroke-linecap="round" stroke-linejoin="round"/>
</svg>
