<svg width="24" height="24" viewBox="0 0 24 24" fill="none" xmlns="http://www.w3.org/2000/svg">
<g opacity="0.6">
<path d="M15.9919 18.5576L15.4505 14.2231C15.3737 13.6091 15.0754 13.0444 14.6115 12.635C14.1475 12.2256 13.55 11.9998 12.9313 12H11.0669C10.4485 12.0002 9.85138 12.2262 9.38781 12.6355C8.92425 13.0449 8.62612 13.6094 8.54943 14.2231L8.0072 18.5576C7.97744 18.7957 7.99868 19.0375 8.06952 19.2668C8.14036 19.4961 8.25917 19.7077 8.41807 19.8875C8.57696 20.0674 8.7723 20.2114 8.99112 20.3099C9.20993 20.4085 9.44721 20.4594 9.6872 20.4592H14.3127C14.5526 20.4593 14.7898 20.4083 15.0085 20.3097C15.2272 20.2111 15.4225 20.067 15.5813 19.8872C15.7401 19.7074 15.8588 19.4958 15.9296 19.2666C16.0004 19.0373 16.0216 18.7957 15.9919 18.5576V18.5576Z" stroke="white" stroke-linecap="round" stroke-linejoin="round"/>
<path d="M11.9999 8.61631C13.4015 8.61631 14.5377 7.48012 14.5377 6.07855C14.5377 4.67698 13.4015 3.54078 11.9999 3.54078C10.5984 3.54078 9.46216 4.67698 9.46216 6.07855C9.46216 7.48012 10.5984 8.61631 11.9999 8.61631Z" stroke="white"/>
<path d="M5.23262 11.1541C6.167 11.1541 6.92446 10.3966 6.92446 9.46224C6.92446 8.52786 6.167 7.77039 5.23262 7.77039C4.29824 7.77039 3.54077 8.52786 3.54077 9.46224C3.54077 10.3966 4.29824 11.1541 5.23262 11.1541Z" stroke="white"/>
<path d="M18.7673 11.1541C19.7017 11.1541 20.4591 10.3966 20.4591 9.46224C20.4591 8.52786 19.7017 7.77039 18.7673 7.77039C17.8329 7.77039 17.0754 8.52786 17.0754 9.46224C17.0754 10.3966 17.8329 11.1541 18.7673 11.1541Z" stroke="white"/>
<path d="M5.2326 13.6918H4.97374C4.57325 13.6918 4.18573 13.8338 3.88012 14.0927C3.5745 14.3515 3.37062 14.7103 3.30474 15.1054L3.02305 16.7972C2.98262 17.0396 2.99549 17.2879 3.06075 17.5248C3.12601 17.7618 3.2421 17.9816 3.40094 18.1691C3.55979 18.3566 3.75757 18.5073 3.98054 18.6106C4.20351 18.7139 4.44631 18.7674 4.69205 18.7674H7.77036" stroke="white" stroke-linecap="round" stroke-linejoin="round"/>
<path d="M18.7674 13.6918H19.0262C19.4267 13.6918 19.8142 13.8338 20.1199 14.0927C20.4255 14.3515 20.6294 14.7103 20.6952 15.1054L20.9769 16.7972C21.0174 17.0396 21.0045 17.2879 20.9392 17.5248C20.874 17.7618 20.7579 17.9816 20.599 18.1691C20.4402 18.3566 20.2424 18.5073 20.0194 18.6106C19.7965 18.7139 19.5537 18.7674 19.3079 18.7674H16.2296" stroke="white" stroke-linecap="round" stroke-linejoin="round"/>
</g>
</svg>
