<svg width="16" height="16" viewBox="0 0 16 16" fill="none" xmlns="http://www.w3.org/2000/svg">
<path fill-rule="evenodd" clip-rule="evenodd" d="M8 0.666672C3.95 0.666672 0.666664 3.95001 0.666664 8C0.666664 12.05 3.95 15.3333 8 15.3333C12.05 15.3333 15.3333 12.05 15.3333 8C15.3333 3.95001 12.05 0.666672 8 0.666672ZM8.66666 4.66667C8.66666 4.48986 8.59643 4.32029 8.4714 4.19527C8.34638 4.07024 8.17681 4 8 4C7.82319 4 7.65362 4.07024 7.52859 4.19527C7.40357 4.32029 7.33333 4.48986 7.33333 4.66667V8.66667C7.33333 8.84348 7.40357 9.01305 7.52859 9.13808C7.65362 9.2631 7.82319 9.33334 8 9.33334C8.17681 9.33334 8.34638 9.2631 8.4714 9.13808C8.59643 9.01305 8.66666 8.84348 8.66666 8.66667V4.66667ZM8.66666 11C8.66666 10.8232 8.59643 10.6536 8.4714 10.5286C8.34638 10.4036 8.17681 10.3333 8 10.3333C7.82319 10.3333 7.65362 10.4036 7.52859 10.5286C7.40357 10.6536 7.33333 10.8232 7.33333 11V11.3333C7.33333 11.5101 7.40357 11.6797 7.52859 11.8047C7.65362 11.9298 7.82319 12 8 12C8.17681 12 8.34638 11.9298 8.4714 11.8047C8.59643 11.6797 8.66666 11.5101 8.66666 11.3333V11Z" fill="#F45A0C"/>
</svg>
