<svg width="20" height="20" viewBox="0 0 20 20" fill="none" xmlns="http://www.w3.org/2000/svg">
<g opacity="0.6">
<path d="M8.79503 5.2L5.97586 1.94584C5.65086 1.57084 5.05503 1.5725 4.67753 1.95084L2.3592 4.27334C1.6692 4.96417 1.4717 5.99 1.87086 6.8125C4.25555 11.75 8.23757 15.7376 13.1717 18.1292C13.9934 18.5283 15.0184 18.3308 15.7084 17.64L18.0484 15.2958C18.4275 14.9167 18.4284 14.3175 18.05 13.9925L14.7834 11.1883C14.4417 10.895 13.9109 10.9333 13.5684 11.2767L12.4317 12.415C12.3735 12.476 12.2969 12.5162 12.2137 12.5294C12.1304 12.5427 12.0451 12.5282 11.9709 12.4883C10.1129 11.4184 8.57169 9.8752 7.5042 8.01584C7.46422 7.94146 7.44974 7.85603 7.46299 7.77263C7.47624 7.68924 7.51647 7.6125 7.57753 7.55417L8.71086 6.42C9.0542 6.075 9.0917 5.54167 8.79503 5.19917V5.2Z" stroke="white" stroke-linecap="round" stroke-linejoin="round"/>
</g>
</svg>
