<svg width="20" height="20" viewBox="0 0 20 20" fill="none" xmlns="http://www.w3.org/2000/svg">
<g opacity="0.6">
<path d="M13.7284 4.50664L15.4934 6.27081L13.7284 4.50664ZM14.8634 2.95248L10.0909 7.72498C9.84432 7.97123 9.67614 8.28496 9.60758 8.62664L9.16675 10.8333L11.3734 10.3916C11.7151 10.3233 12.0284 10.1558 12.2751 9.90915L17.0476 5.13664C17.191 4.99323 17.3048 4.82297 17.3824 4.63559C17.46 4.44821 17.4999 4.24738 17.4999 4.04456C17.4999 3.84174 17.46 3.64091 17.3824 3.45353C17.3048 3.26615 17.191 3.09589 17.0476 2.95248C16.9042 2.80906 16.7339 2.6953 16.5465 2.61769C16.3591 2.54007 16.1583 2.50012 15.9555 2.50012C15.7527 2.50012 15.5518 2.54007 15.3645 2.61769C15.1771 2.6953 15.0068 2.80906 14.8634 2.95248V2.95248Z" stroke="white" stroke-linecap="round" stroke-linejoin="round"/>
<path d="M15.8334 12.5V15C15.8334 15.442 15.6578 15.8659 15.3452 16.1785C15.0327 16.491 14.6087 16.6666 14.1667 16.6666H5.00004C4.55801 16.6666 4.13409 16.491 3.82153 16.1785C3.50897 15.8659 3.33337 15.442 3.33337 15V5.83329C3.33337 5.39127 3.50897 4.96734 3.82153 4.65478C4.13409 4.34222 4.55801 4.16663 5.00004 4.16663H7.50004" stroke="white" stroke-linecap="round" stroke-linejoin="round"/>
</g>
</svg>
