<svg width="24" height="24" viewBox="0 0 24 24" fill="none" xmlns="http://www.w3.org/2000/svg">
<g opacity="0.6">
<path d="M13.6 5.0152C13.6 4.4544 13.1456 4 12.5848 4H11.416C10.8544 4 10.4 4.4544 10.4 5.0152C10.4 5.4776 10.0832 5.8744 9.652 6.044C9.584 6.0712 9.516 6.1 9.4496 6.1288C9.0248 6.3128 8.52 6.2568 8.192 5.9296C8.00163 5.73937 7.74352 5.63251 7.4744 5.63251C7.20528 5.63251 6.94717 5.73937 6.7568 5.9296L5.9296 6.7568C5.73937 6.94717 5.63251 7.20528 5.63251 7.4744C5.63251 7.74352 5.73937 8.00163 5.9296 8.192V8.192C6.2576 8.52 6.3136 9.024 6.128 9.4496C6.09884 9.51658 6.07083 9.58406 6.044 9.652C5.8744 10.0832 5.4776 10.4 5.0152 10.4C4.4544 10.4 4 10.8544 4 11.4152V12.5848C4 13.1456 4.4544 13.6 5.0152 13.6C5.4776 13.6 5.8744 13.9168 6.044 14.348C6.0712 14.416 6.1 14.484 6.128 14.5504C6.3128 14.9752 6.2568 15.48 5.9296 15.808C5.73937 15.9984 5.63251 16.2565 5.63251 16.5256C5.63251 16.7947 5.73937 17.0528 5.9296 17.2432L6.7568 18.0704C6.94717 18.2606 7.20528 18.3675 7.4744 18.3675C7.74352 18.3675 8.00163 18.2606 8.192 18.0704C8.52 17.7424 9.024 17.6864 9.4496 17.8712C9.516 17.9008 9.584 17.9288 9.652 17.956C10.0832 18.1256 10.4 18.5224 10.4 18.9848C10.4 19.5456 10.8544 20 11.4152 20H12.5848C13.1456 20 13.6 19.5456 13.6 18.9848C13.6 18.5224 13.9168 18.1256 14.348 17.9552C14.416 17.9288 14.484 17.9008 14.5504 17.872C14.9752 17.6864 15.48 17.7432 15.8072 18.0704C15.9015 18.1647 16.0134 18.2395 16.1366 18.2906C16.2598 18.3416 16.3918 18.3679 16.5252 18.3679C16.6586 18.3679 16.7906 18.3416 16.9138 18.2906C17.037 18.2395 17.1489 18.1647 17.2432 18.0704L18.0704 17.2432C18.2606 17.0528 18.3675 16.7947 18.3675 16.5256C18.3675 16.2565 18.2606 15.9984 18.0704 15.808V15.808C17.7424 15.48 17.6864 14.976 17.8712 14.5504C17.9008 14.484 17.9288 14.416 17.956 14.348C18.1256 13.9168 18.5224 13.6 18.9848 13.6C19.5456 13.6 20 13.1456 20 12.5848V11.416C20 10.8552 19.5456 10.4008 18.9848 10.4008C18.5224 10.4008 18.1256 10.084 17.9552 9.6528C17.9284 9.58484 17.9004 9.51737 17.8712 9.4504C17.6872 9.0256 17.7432 8.5208 18.0704 8.1928C18.2606 8.00243 18.3675 7.74432 18.3675 7.4752C18.3675 7.20608 18.2606 6.94797 18.0704 6.7576L17.2432 5.9304C17.0528 5.74017 16.7947 5.63331 16.5256 5.63331C16.2565 5.63331 15.9984 5.74017 15.808 5.9304V5.9304C15.48 6.2584 14.976 6.3144 14.5504 6.1296C14.4834 6.10017 14.416 6.0719 14.348 6.0448C13.9168 5.8744 13.6 5.4776 13.6 5.016V5.0152Z" stroke="white"/>
<path d="M15.2 12C15.2 12.8487 14.8629 13.6626 14.2628 14.2627C13.6627 14.8629 12.8487 15.2 12 15.2C11.1514 15.2 10.3374 14.8629 9.73731 14.2627C9.13719 13.6626 8.80005 12.8487 8.80005 12C8.80005 11.1513 9.13719 10.3374 9.73731 9.73726C10.3374 9.13714 11.1514 8.8 12 8.8C12.8487 8.8 13.6627 9.13714 14.2628 9.73726C14.8629 10.3374 15.2 11.1513 15.2 12V12Z" stroke="white"/>
</g>
</svg>
