<svg width="135" height="73" viewBox="0 0 135 73" fill="none" xmlns="http://www.w3.org/2000/svg">
<g clip-path="url(#clip0_12_223)">
<path d="M48.887 46.0832C48.887 43.106 51.2152 43.106 53.5433 43.106H63.2408V45.5317H53.3485C52.7689 45.5317 52.1844 45.5317 52.1844 46.3028V54.4633C52.1844 55.2344 52.7639 55.2344 53.3485 55.2344H63.2408V57.6601H53.5433C51.2152 57.6601 48.887 57.6601 48.887 54.6829V46.0832Z" fill="white"/>
<path d="M65.9536 43.1004H81.2767V57.6595H77.9793V45.5312H69.2511V57.6646H65.9536V43.1004Z" fill="white"/>
<path d="M89.4204 43.1004H93.8819L100.282 57.6595H96.7897L94.9461 53.467H88.3512L86.5077 57.6595H83.0154L89.4204 43.1004ZM93.8819 51.0464L91.6537 45.9704L89.4254 51.0464H93.8819Z" fill="white"/>
<path d="M102.031 43.1004H112.697C115.026 43.1004 117.354 43.1004 117.354 46.0776V49.1671C117.354 52.1443 115.026 52.1443 112.697 52.1443H105.328V57.6595H102.031V43.1004ZM112.892 49.7187C113.472 49.7187 114.056 49.7187 114.056 48.9475V46.3023C114.056 45.5312 113.477 45.5312 112.892 45.5312H105.328V49.7238H112.892V49.7187Z" fill="white"/>
<path d="M120.067 43.1004H123.364V50.8217L130.154 43.1004H134.226L128.215 49.9434L135.005 57.6646H130.933L126.182 52.2618L123.369 55.4586V57.6646H120.072V43.1004H120.067Z" fill="white"/>
<path d="M65.8688 60.9845H67.2627V64.069L70.1505 60.9845H71.6443V65.4733H70.2504V62.3889L67.3626 65.4733H65.8688V60.9845Z" fill="white"/>
<path d="M72.8384 60.984H74.2323V62.6692H77.22V60.984H78.6139V65.4728H77.22V63.3688H74.2323V65.4728H72.8384V60.984Z" fill="white"/>
<path d="M79.808 60.984H85.5785V61.6836H83.3902V65.4728H81.9963V61.6836H79.808V60.984Z" fill="white"/>
<path d="M86.7725 62.0564C86.7725 60.984 87.7667 60.984 88.7609 60.984H90.5495C91.5438 60.984 92.538 60.984 92.538 62.0564V63.3637H88.1614V64.4872C88.1614 64.768 88.4112 64.768 88.661 64.768H92.3431V65.4676H88.7609C87.7667 65.4676 86.7725 65.4676 86.7725 64.3901V62.0564ZM91.1541 62.6641V61.9645C91.1541 61.6836 90.9043 61.6836 90.6544 61.6836H88.666C88.4162 61.6836 88.1664 61.6836 88.1664 61.9645V62.6641H91.1541Z" fill="white"/>
<path d="M93.7421 60.984H99.1129V61.6836H95.131V65.4728H93.7371V60.984H93.7421Z" fill="white"/>
<path d="M100.312 60.984H104.094C105.088 60.984 106.083 60.984 106.083 62.0564V64.3952C106.083 65.4728 105.088 65.4728 104.094 65.4728H101.706V67.5767H100.312V60.984ZM104.194 64.768C104.444 64.768 104.689 64.768 104.689 64.4872V61.9645C104.689 61.6836 104.439 61.6836 104.194 61.6836H101.706V64.768H104.194Z" fill="white"/>
<path d="M107.277 63.7416C107.277 62.6641 108.271 62.6641 109.265 62.6641H111.653V61.9645C111.653 61.6836 111.403 61.6836 111.154 61.6836H107.671V60.984H111.054C112.048 60.984 113.042 60.984 113.042 62.0564V65.4676H109.26C108.266 65.4676 107.272 65.4676 107.272 64.3901V63.7416H107.277ZM109.17 64.768H111.658V63.3637H109.17C108.92 63.3637 108.671 63.3637 108.671 63.6446V64.4872C108.671 64.768 108.92 64.768 109.17 64.768Z" fill="white"/>
<path d="M114.246 60.984H115.64V64.7731H118.628V60.984H120.022V64.7731H120.816V66.6422H119.622V65.4728H114.251V60.984H114.246Z" fill="white"/>
<path d="M121.71 60.984H123.104V64.0684L125.992 60.984H127.486V65.4728H126.092V62.3883L123.204 65.4728H121.71V60.984Z" fill="white"/>
<path d="M130.419 63.6446C129.524 63.6446 128.675 63.5526 128.675 62.5671V62.0513C128.675 60.9789 129.669 60.9789 130.663 60.9789H134.445V65.4676H133.052V63.6446H132.007L130.069 65.4676H128.475L130.419 63.6446ZM130.568 62.9449H133.057V61.6836H130.568C130.319 61.6836 130.069 61.6836 130.069 61.9645V62.6641C130.074 62.9449 130.324 62.9449 130.568 62.9449Z" fill="white"/>
<path d="M32.2 44.5813L34.6081 40.7922L43.701 46.8283L27.0739 73L1.46886 56.005L9.74242 42.9829L13.4495 45.4444L7.5841 54.6772L25.775 66.7494L37.5858 48.156L32.2 44.5813ZM28.7776 13.022L32.4847 15.4835L38.3502 6.25058L56.541 18.3228L44.7302 36.9162L39.3444 33.3415L36.9363 37.1307L46.0292 43.1668L62.6563 16.995L37.0512 0L28.7776 13.022ZM6.11524 32.4938L17.9261 13.9004L34.2634 24.7419L36.6715 20.9527L16.6271 7.64981L0 33.8215L9.09293 39.8576L11.5011 36.0685L6.11524 32.4938Z" fill="white"/>
<path d="M42.2322 24.6449L38.5251 22.1834L24.3061 44.566L13.3547 37.2992L10.9465 41.0884L25.6051 50.8166L42.2322 24.6449Z" fill="white"/>
</g>
<defs>
<clipPath id="clip0_12_223">
<rect width="135" height="73" fill="white"/>
</clipPath>
</defs>
</svg>
