<svg width="44" height="44" viewBox="0 0 44 44" fill="none" xmlns="http://www.w3.org/2000/svg">
<path d="M21.9999 22C27.0625 22 31.1666 17.8959 31.1666 12.8333C31.1666 7.77071 27.0625 3.66666 21.9999 3.66666C16.9373 3.66666 12.8333 7.77071 12.8333 12.8333C12.8333 17.8959 16.9373 22 21.9999 22Z" stroke="white" stroke-width="2"/>
<path d="M31.1666 25.6667H31.8119C33.1523 25.667 34.4463 26.1568 35.451 27.044C36.4556 27.9312 37.1017 29.1547 37.2679 30.4847L37.9848 36.212C38.0493 36.7279 38.0033 37.2517 37.8498 37.7485C37.6964 38.2453 37.4391 38.7039 37.0949 39.0936C36.7508 39.4834 36.3276 39.7955 35.8536 40.0092C35.3796 40.223 34.8656 40.3334 34.3456 40.3333H9.65428C9.13432 40.3334 8.62027 40.223 8.14627 40.0092C7.67226 39.7955 7.24913 39.4834 6.90497 39.0936C6.56081 38.7039 6.30348 38.2453 6.15006 37.7485C5.99664 37.2517 5.95064 36.7279 6.01512 36.212L6.73012 30.4847C6.89639 29.1541 7.54304 27.9301 8.54847 27.0428C9.5539 26.1555 10.8488 25.6661 12.1898 25.6667H12.8333" stroke="white" stroke-width="2" stroke-linecap="round" stroke-linejoin="round"/>
</svg>
