<svg width="20" height="20" viewBox="0 0 20 20" fill="none" xmlns="http://www.w3.org/2000/svg">
<path d="M11.6667 15.8333C14.8092 15.8333 16.3809 15.8333 17.3567 14.8567C18.3334 13.8808 18.3334 12.3092 18.3334 9.16667C18.3334 6.02417 18.3334 4.4525 17.3567 3.47667C16.3809 2.5 14.8092 2.5 11.6667 2.5H8.33335C5.19085 2.5 3.61919 2.5 2.64335 3.47667C1.66669 4.4525 1.66669 6.02417 1.66669 9.16667C1.66669 12.3092 1.66669 13.8808 2.64335 14.8567C3.18752 15.4017 3.91669 15.6425 5.00002 15.7483" stroke="#F45A0C" stroke-linecap="round" stroke-linejoin="round"/>
<path d="M8.33337 7.07001C8.75004 6.24501 9.16671 5.83334 10 5.83334C11.0384 5.83334 11.6667 6.65751 11.6667 7.48168C11.6667 8.30584 11.25 8.34251 10 9.16668V10M10 12.0833V12.5" stroke="#F45A0C" stroke-linecap="round"/>
<path d="M11.6667 15.8333C10.6367 15.8333 9.50168 16.25 8.46585 16.7875C6.80085 17.6517 5.96835 18.0842 5.55835 17.8083C5.14835 17.5333 5.22585 16.6792 5.38168 14.9717L5.41668 14.5833" stroke="#F45A0C" stroke-linecap="round"/>
</svg>
