<svg width="20" height="20" viewBox="0 0 20 20" fill="none" xmlns="http://www.w3.org/2000/svg">
<path d="M3.33331 3.33332V16.6667C3.33331 17.1087 3.50891 17.5326 3.82147 17.8452C4.13403 18.1577 4.55795 18.3333 4.99998 18.3333H15C15.442 18.3333 15.8659 18.1577 16.1785 17.8452C16.4911 17.5326 16.6666 17.1087 16.6666 16.6667V6.95166C16.6666 6.72962 16.6222 6.50983 16.5361 6.30519C16.4499 6.10055 16.3238 5.91519 16.165 5.75999L12.465 2.14166C12.1536 1.8372 11.7355 1.66671 11.3 1.66666H4.99998C4.55795 1.66666 4.13403 1.84225 3.82147 2.15481C3.50891 2.46737 3.33331 2.8913 3.33331 3.33332V3.33332Z" stroke="#F45A0C" stroke-linecap="round" stroke-linejoin="round"/>
<path d="M11.6666 1.66666V4.99999C11.6666 5.44202 11.8422 5.86594 12.1548 6.1785C12.4673 6.49106 12.8913 6.66666 13.3333 6.66666H16.6666" stroke="#F45A0C" stroke-linejoin="round"/>
<line x1="9.5" y1="10.5" x2="9.5" y2="14.5" stroke="#F45A0C" stroke-linecap="round"/>
<path d="M9.5 8V8.5" stroke="#F45A0C" stroke-linecap="round"/>
</svg>
